<?xml version="1.0" ?><svg style="enable-background:new 0 0 100 100;" version="1.1" viewBox="0 0 100 100" xml:space="preserve" xmlns="http://www.w3.org/2000/svg" xmlns:xlink="http://www.w3.org/1999/xlink"><style type="text/css">
	.st0{fill:#FFFFFF;}
	.st1{fill:#D43C89;}
	.st2{fill:#B2005F;}
	.st3{fill:none;stroke:#000000;stroke-width:3;stroke-linecap:round;stroke-linejoin:round;stroke-miterlimit:10;}
	
		.st4{fill-rule:evenodd;clip-rule:evenodd;fill:none;stroke:#000000;stroke-width:3;stroke-linecap:round;stroke-linejoin:round;stroke-miterlimit:10;}
	
		.st5{fill-rule:evenodd;clip-rule:evenodd;fill:none;stroke:#040404;stroke-width:3;stroke-linecap:round;stroke-linejoin:round;stroke-miterlimit:10;}
	.st6{fill-rule:evenodd;clip-rule:evenodd;}
	.st7{fill-rule:evenodd;clip-rule:evenodd;fill:#040404;}
	.st8{fill:url(#SVGID_1_);}
	.st9{fill:url(#SVGID_2_);}
	.st10{fill:url(#SVGID_3_);}
	.st11{fill:url(#SVGID_4_);}
	.st12{fill:url(#SVGID_5_);}
	.st13{fill:url(#SVGID_6_);}
	.st14{fill:url(#SVGID_7_);}
	.st15{fill:url(#SVGID_8_);}
	.st16{fill:url(#SVGID_9_);}
	.st17{fill:url(#SVGID_10_);}
	.st18{fill:url(#SVGID_11_);}
	.st19{fill:url(#SVGID_12_);}
	.st20{fill:url(#SVGID_13_);}
	.st21{fill:url(#SVGID_14_);}
	.st22{fill:url(#SVGID_15_);}
	.st23{fill:url(#SVGID_16_);}
	.st24{fill:url(#SVGID_17_);}
	.st25{fill:url(#SVGID_18_);}
	.st26{fill:url(#SVGID_19_);}
	.st27{fill:url(#SVGID_20_);}
	.st28{fill:url(#SVGID_21_);}
	.st29{fill:url(#SVGID_22_);}
	.st30{fill:url(#SVGID_23_);}
	.st31{fill:url(#SVGID_24_);}
	.st32{fill:url(#SVGID_25_);}
	.st33{fill:url(#SVGID_26_);}
	.st34{fill:url(#SVGID_27_);}
	.st35{fill:url(#SVGID_28_);}
	.st36{fill:url(#SVGID_29_);}
	.st37{fill:url(#SVGID_30_);}
	.st38{fill:url(#SVGID_31_);}
	.st39{fill:url(#SVGID_32_);}
	.st40{fill:url(#SVGID_33_);}
	.st41{fill:url(#SVGID_34_);}
	.st42{fill:url(#SVGID_35_);}
	.st43{fill:url(#SVGID_36_);}
	.st44{fill:url(#SVGID_37_);}
	.st45{fill:url(#SVGID_38_);}
	.st46{fill:url(#SVGID_39_);}
	.st47{fill:url(#SVGID_40_);}
	.st48{fill:url(#SVGID_41_);}
	.st49{fill:url(#SVGID_42_);}
	.st50{fill:url(#SVGID_43_);}
	.st51{fill:url(#SVGID_44_);}
	.st52{fill:url(#SVGID_45_);}
	.st53{fill:#040404;}
	.st54{fill:url(#SVGID_46_);}
	.st55{fill:url(#SVGID_47_);}
	.st56{fill:url(#SVGID_48_);}
	.st57{fill:url(#SVGID_49_);}
	.st58{fill:url(#SVGID_50_);}
	.st59{fill:url(#SVGID_51_);}
	.st60{fill:url(#SVGID_52_);}
	.st61{fill:url(#SVGID_53_);}
	.st62{fill:url(#SVGID_54_);}
	.st63{fill:url(#SVGID_55_);}
	.st64{fill:url(#SVGID_56_);}
	.st65{fill:url(#SVGID_57_);}
	.st66{fill:url(#SVGID_58_);}
	.st67{fill:url(#SVGID_59_);}
	.st68{fill:url(#SVGID_60_);}
	.st69{fill:url(#SVGID_61_);}
	.st70{fill:url(#SVGID_62_);}
	.st71{fill:none;stroke:#000000;stroke-width:3;stroke-miterlimit:10;}
	.st72{fill:none;stroke:#FFFFFF;stroke-miterlimit:10;}
	.st73{fill:#4BC9FF;}
	.st74{fill:#5500DD;}
	.st75{fill:#FF3A00;}
	.st76{fill:#FFC794;}
	.st77{fill:#F1F1F1;}
	.st78{fill:#EB4E00;}
	.st79{fill:#E6162D;}
	.st80{fill:#FF9933;}
	.st81{fill:#B92B27;}
	.st82{fill:#00ACED;}
	.st83{fill:#BD2125;}
	.st84{fill:#1877F2;}
	.st85{fill:#6665D2;}
	.st86{fill:#CE3056;}
	.st87{fill:#5BB381;}
	.st88{fill:#61C3EC;}
	.st89{fill:#E4B34B;}
	.st90{fill:#181EF2;}
	.st91{fill:#FF0000;}
	.st92{fill:#FE466C;}
	.st93{fill:#FA4778;}
	.st94{fill:#FF7700;}
	.st95{fill:#D95040;}
	.st96{fill:#58A55C;}
	.st97{fill:#4E86EC;}
	.st98{fill:#B6332A;}
	.st99{fill:#F3BD42;}
	.st100{fill-rule:evenodd;clip-rule:evenodd;fill:#1F6BF6;}
	.st101{fill:#520094;}
	.st102{fill:#4477E8;}
	.st103{fill:#3D1D1C;}
	.st104{fill:#FFE812;}
	.st105{fill:#344356;}
	.st106{fill:#00CC76;}
	.st107{fill-rule:evenodd;clip-rule:evenodd;fill:#345E90;}
	.st108{fill:#1F65D8;}
	.st109{fill:#EB3587;}
	.st110{fill-rule:evenodd;clip-rule:evenodd;fill:#603A88;}
	.st111{fill:#E3CE99;}
	.st112{fill:#783AF9;}
	.st113{fill:#FF515E;}
	.st114{fill:#FF4906;}
	.st115{fill:#503227;}
	.st116{fill:#4C7BD9;}
	.st117{fill:#69C9D0;}
	.st118{fill:#1B92D1;}
	.st119{fill:#EB4F4A;}
	.st120{fill:#513728;}
	.st121{fill:#FF6600;}
	.st122{fill-rule:evenodd;clip-rule:evenodd;fill:#B61438;}
	.st123{fill:#FFFC00;}
	.st124{fill:#141414;}
	.st125{fill:#94D137;}
	.st126{fill-rule:evenodd;clip-rule:evenodd;fill:#F1F1F1;}
	.st127{fill-rule:evenodd;clip-rule:evenodd;fill:#66E066;}
	.st128{fill:#464EB8;}
	.st129{fill:#7B83EB;}
	.st130{fill:#2D8CFF;}
	.st131{fill:#F1A300;}
	.st132{fill:#4BA2F2;}
	.st133{fill:#1A5099;}
	.st134{fill:#EE6060;}
	.st135{fill-rule:evenodd;clip-rule:evenodd;fill:#F48120;}
	.st136{fill:#222222;}
	.st137{fill:url(#SVGID_63_);}
	.st138{fill:#0077B5;}
	.st139{fill:#FFCC00;}
	.st140{fill:#EB3352;}
	.st141{fill:#F9D265;}
	.st142{fill:#F5B955;}
	.st143{fill:#DC322F;}
	.st144{fill:#4DA94C;}
	.st145{fill:#39802F;}
	.st146{fill:#F6BD41;}
	.st147{fill:#EB5141;}
	.st148{fill:#2165D6;}
	.st149{fill:#2F83F7;}
	.st150{fill:#DD2A7B;}
</style><g id="Layer_1"/><g id="Layer_2"><g><path d="M64.187,2.5H35.906C9.404,2.5,2.544,9.349,2.544,35.81v28.28C1.294,104.818,26.701,96.349,57.3,97.45    c1.822-0.049,1.818-2.724,0-2.766c0,0-21.442,0-21.442,0c-25.124,0-30.548-5.433-30.548-30.593V35.81    c0-25.121,5.433-30.545,30.596-30.545c62.559-0.297,59.11-3.671,58.828,58.873c0,25.122-5.433,30.545-30.595,30.545    c-1.818,0.018-1.813,2.744,0,2.766c26.502,0,33.361-6.849,33.361-33.311V35.859C97.5,9.359,90.651,2.5,64.187,2.5z"/><path d="M56.998,60.095c1.543-0.376,7.289,5.328,8.87,7.297c2.045,2.276,3.279,3.65,5.679,3.65h6.723    c1.872,0,2.812-0.741,3.271-1.362c1.998-3.219-1.622-6.905-5.575-11.62c-1.359-1.758-4.024-3.686-4.936-5.405    c4.777-7.845,15.256-20.582,6.28-20.867c0,0-6.722,0-6.722,0c-1.377,0-3.224,0.479-4.21,2.78    c-0.033,0.082-3.379,8.199-7.956,13.278c-1.314,1.221-1.928,2.011-1.817,1.122c0,0,0-8.667,0-8.667    c-0.025-1.808-2.736-1.824-2.766,0c0,0,0,8.667,0,8.667c0,2.269,1.264,3.303,2.439,3.303c5.929-0.51,12.798-17.014,12.651-16.634    c0.293-0.685,0.659-1.082,1.658-1.082h6.722c0.532,0,0.78,0.096,0.778,0.063c0.013,0.044,0.024,0.239-0.086,0.606    c0.074,0.506-2.188,5.687-8.857,15.152c-2.978,3.658,2.538,6.646,4.728,9.494c1.527,1.815,7.962,8.823,4.398,8.409    c0,0-6.723,0-6.723,0c-1.117,0-1.716-0.611-3.622-2.733c-2.931-3.488-8.448-8.636-10.927-8.213c-2.776,0-3.159,1.772-3.159,3.687    v6.049c0,0.728,0,1.21-3.418,1.21c-7.009,0-14.25-4.374-19.379-11.713C22.597,44.772,20.689,36.18,20.689,35.09    c0-0.763-0.619-1.383-1.383-1.383c-4.118-0.127,2.135,14.198,9.477,24.453c5.638,8.066,13.726,12.881,21.637,12.881    c3.712,0,6.184-0.676,6.184-3.975v-6.049C56.661,60.267,56.474,60.042,56.998,60.095z"/><path d="M32.651,35.226c-0.629-1.664-1.533-3.439-4.319-3.439h-5.675c-1.806,0.03-1.827,2.732,0,2.766c0,0,5.675,0,5.675,0    c0.86,0,1.134,0.07,1.716,1.608c2.626,7.721,8.553,18.893,12.401,18.893c2.632,0,2.632-2.652,2.632-3.927l-0.003-9.979    c-0.723-8.678-9.017-6.274,8.625-6.561c0.023,0.04,0.136,0.27,0.136,1.032c0.025,1.816,2.738,1.817,2.766,0    c0-2.542-1.111-3.831-3.303-3.831H42.737c-3.309,0.131-3.908,3.588-1.995,5.424c0.668,0.833,1.426,1.776,1.573,4.025    c-0.02,0.497,0.053,10.804-0.052,10.949C40.616,51.227,35.859,44.658,32.651,35.226z"/></g></g></svg>